<?xml version="1.0" encoding="utf-8"?>
<!-- Generator: Adobe Illustrator 25.2.1, SVG Export Plug-In . SVG Version: 6.00 Build 0)  -->
<svg version="1.1" id="Layer_1" xmlns="http://www.w3.org/2000/svg" xmlns:xlink="http://www.w3.org/1999/xlink" x="0px" y="0px"
	 viewBox="0 0 300 300" style="enable-background:new 0 0 300 300;" xml:space="preserve">
<style type="text/css">
	.st0{fill:url(#SVGID_1_);}
	.st1{fill:url(#SVGID_2_);}
	.st2{fill:none;stroke:url(#SVGID_3_);stroke-width:6;stroke-miterlimit:10;}
</style>
<g>
	<linearGradient id="SVGID_1_" gradientUnits="userSpaceOnUse" x1="206.4169" y1="206.4155" x2="92.6856" y2="92.6842">
		<stop  offset="0" style="stop-color:#009FFF"/>
		<stop  offset="0.0263" style="stop-color:#0D99F5"/>
		<stop  offset="0.1522" style="stop-color:#477DC8"/>
		<stop  offset="0.2779" style="stop-color:#7A65A2"/>
		<stop  offset="0.4007" style="stop-color:#A35283"/>
		<stop  offset="0.52" style="stop-color:#C3436A"/>
		<stop  offset="0.6347" style="stop-color:#DA3859"/>
		<stop  offset="0.7431" style="stop-color:#E7314F"/>
		<stop  offset="0.8383" style="stop-color:#EC2F4B"/>
	</linearGradient>
	<path class="st0" d="M233.33,150c0,11.24-2.21,22.15-6.56,32.44c-2.38,5.62-5.34,10.92-8.84,15.84c-2.68,3.77-5.69,7.32-9,10.64
		c-3.31,3.31-6.87,6.32-10.64,9.01c-4.93,3.51-10.22,6.46-15.84,8.84c-10.29,4.35-21.21,6.56-32.45,6.56
		c-11.24,0-22.15-2.21-32.44-6.56c-9.93-4.2-18.84-10.2-26.48-17.85c-7.64-7.64-13.65-16.55-17.85-26.48
		c-4.35-10.29-6.56-21.21-6.56-32.44c0-11.24,2.21-22.15,6.56-32.44c0.02-0.06,0.05-0.11,0.07-0.17
		c3.49-8.21,14.22-10.23,20.53-3.92l0.07,0.07c4.61,4.61,6.05,11.47,3.84,17.6c-2.13,5.89-3.29,12.24-3.29,18.87
		c0,30.68,24.88,55.56,55.56,55.56c10.3,0,19.95-2.81,28.22-7.69c8.09-4.78,14.86-11.55,19.64-19.64
		c4.75-8.04,7.54-17.39,7.69-27.37c0.47-31.16-25.13-56.81-56.3-56.4c-6.38,0.08-12.51,1.25-18.2,3.31
		c-6.07,2.2-12.87,0.78-17.44-3.79l-0.15-0.15c-6.31-6.31-4.29-17.03,3.92-20.52c0.06-0.02,0.11-0.05,0.17-0.07
		c10.29-4.35,21.21-6.56,32.44-6.56c11.24,0,22.16,2.21,32.45,6.56c9.92,4.2,18.84,10.2,26.48,17.85
		c7.64,7.64,13.65,16.55,17.85,26.48C231.13,127.85,233.33,138.76,233.33,150z"/>
	<linearGradient id="SVGID_2_" gradientUnits="userSpaceOnUse" x1="248.0647" y1="51.9353" x2="218.6019" y2="81.3981">
		<stop  offset="0" style="stop-color:#009FFF"/>
		<stop  offset="1" style="stop-color:#EC2F4B"/>
	</linearGradient>
	<circle class="st1" cx="233.33" cy="66.67" r="20.83"/>
	<linearGradient id="SVGID_3_" gradientUnits="userSpaceOnUse" x1="22" y1="150" x2="278" y2="150">
		<stop  offset="0" style="stop-color:#009FFF"/>
		<stop  offset="1" style="stop-color:#EC2F4B"/>
	</linearGradient>
	<path class="st2" d="M234.09,275H65.91C43.31,275,25,256.69,25,234.09V65.91C25,43.31,43.31,25,65.91,25h168.19
		C256.69,25,275,43.31,275,65.91v168.19C275,256.69,256.69,275,234.09,275z"/>
</g>
</svg>
